<svg width="167" height="38" viewBox="0 0 167 38" fill="none" xmlns="http://www.w3.org/2000/svg">
<path d="M69.9281 34.8723C69.2027 34.9576 68.3067 35.043 67.2401 35.1283C66.1734 35.2136 65.2774 35.2563 64.5521 35.2563C62.5467 35.2563 60.6907 34.8936 58.9841 34.1683C57.3201 33.4003 55.8694 32.3336 54.6321 30.9683C53.3947 29.603 52.4134 27.9603 51.6881 26.0403C51.0054 24.0776 50.6641 21.9016 50.6641 19.5123C50.6641 16.2696 51.0907 13.4963 51.9441 11.1923C52.8401 8.84562 53.9707 6.92562 55.3361 5.43229C56.7441 3.89629 58.3014 2.78696 60.0081 2.10429C61.7574 1.37896 63.4641 1.01629 65.1281 1.01629C65.7254 1.01629 66.4934 1.05895 67.4321 1.14429C68.4134 1.22962 69.2454 1.31496 69.9281 1.40029C70.2267 1.44295 70.4827 1.59229 70.6961 1.84829C70.9094 2.06162 71.0161 2.31762 71.0161 2.61629V6.96829C71.0161 7.30962 70.9094 7.56562 70.6961 7.73629C70.4827 7.90696 70.2267 7.97096 69.9281 7.92829C69.2881 7.84296 68.4987 7.75762 67.5601 7.67229C66.6641 7.58696 65.8534 7.54429 65.1281 7.54429C64.3601 7.54429 63.5707 7.82162 62.7601 8.37629C61.9494 8.93095 61.2027 9.74162 60.5201 10.8083C59.8801 11.8323 59.3467 13.091 58.9201 14.5843C58.4934 16.035 58.2801 17.6776 58.2801 19.5123C58.2801 20.0243 58.3441 20.7923 58.4721 21.8163C58.6427 22.8403 58.9414 23.8643 59.3681 24.8883C59.8374 25.9123 60.4774 26.8083 61.2881 27.5763C62.1414 28.3443 63.2294 28.7283 64.5521 28.7283C65.2774 28.7283 66.1734 28.6856 67.2401 28.6003C68.3067 28.515 69.2027 28.4296 69.9281 28.3443C70.2267 28.3016 70.4827 28.3656 70.6961 28.5363C70.9094 28.707 71.0161 28.963 71.0161 29.3043V33.6563C71.0161 33.955 70.9094 34.2323 70.6961 34.4883C70.4827 34.7016 70.2267 34.8296 69.9281 34.8723Z" fill="#0D0C22"/>
<path d="M87.7141 35.5763C83.7034 35.5763 80.5674 34.0403 78.3061 30.9683C76.0447 27.8963 74.9141 23.6083 74.9141 18.1043C74.9141 12.643 76.0447 8.37629 78.3061 5.30429C80.5674 2.23229 83.7034 0.696289 87.7141 0.696289C91.7247 0.696289 94.8394 2.23229 97.0581 5.30429C99.3194 8.37629 100.45 12.643 100.45 18.1043C100.45 23.6083 99.3194 27.8963 97.0581 30.9683C94.8394 34.0403 91.7247 35.5763 87.7141 35.5763ZM87.7141 7.54429C86.6474 7.54429 85.7727 7.86429 85.0901 8.50429C84.4074 9.14429 83.8741 9.97629 83.4901 11.0003C83.1061 12.0243 82.8501 13.1763 82.7221 14.4563C82.5941 15.6936 82.5301 16.9096 82.5301 18.1043C82.5301 19.299 82.5941 20.5363 82.7221 21.8163C82.8501 23.0536 83.1061 24.1843 83.4901 25.2083C83.8741 26.2323 84.4074 27.0856 85.0901 27.7683C85.7727 28.4083 86.6474 28.7283 87.7141 28.7283C88.7807 28.7283 89.6341 28.4083 90.2741 27.7683C90.9567 27.0856 91.4901 26.2323 91.8741 25.2083C92.2581 24.1843 92.5141 23.0536 92.6421 21.8163C92.7701 20.5363 92.8341 19.299 92.8341 18.1043C92.8341 16.9096 92.7701 15.6936 92.6421 14.4563C92.5141 13.1763 92.2581 12.0243 91.8741 11.0003C91.4901 9.97629 90.9567 9.14429 90.2741 8.50429C89.6341 7.86429 88.7807 7.54429 87.7141 7.54429Z" fill="#0D0C22"/>
<path d="M116.589 35.5763C112.578 35.5763 109.442 34.0403 107.181 30.9683C104.92 27.8963 103.789 23.6083 103.789 18.1043C103.789 12.643 104.92 8.37629 107.181 5.30429C109.442 2.23229 112.578 0.696289 116.589 0.696289C120.6 0.696289 123.714 2.23229 125.933 5.30429C128.194 8.37629 129.325 12.643 129.325 18.1043C129.325 23.6083 128.194 27.8963 125.933 30.9683C123.714 34.0403 120.6 35.5763 116.589 35.5763ZM116.589 7.54429C115.522 7.54429 114.648 7.86429 113.965 8.50429C113.282 9.14429 112.749 9.97629 112.365 11.0003C111.981 12.0243 111.725 13.1763 111.597 14.4563C111.469 15.6936 111.405 16.9096 111.405 18.1043C111.405 19.299 111.469 20.5363 111.597 21.8163C111.725 23.0536 111.981 24.1843 112.365 25.2083C112.749 26.2323 113.282 27.0856 113.965 27.7683C114.648 28.4083 115.522 28.7283 116.589 28.7283C117.656 28.7283 118.509 28.4083 119.149 27.7683C119.832 27.0856 120.365 26.2323 120.749 25.2083C121.133 24.1843 121.389 23.0536 121.517 21.8163C121.645 20.5363 121.709 19.299 121.709 18.1043C121.709 16.9096 121.645 15.6936 121.517 14.4563C121.389 13.1763 121.133 12.0243 120.749 11.0003C120.365 9.97629 119.832 9.14429 119.149 8.50429C118.509 7.86429 117.656 7.54429 116.589 7.54429Z" fill="#0D0C22"/>
<path d="M140.472 1.27229C140.771 1.27229 141.027 1.37896 141.24 1.59229C141.453 1.80562 141.56 2.06162 141.56 2.36029V27.3843C141.56 27.683 141.667 27.939 141.88 28.1523C142.093 28.3656 142.349 28.4723 142.648 28.4723H150.008C150.307 28.4723 150.563 28.579 150.776 28.7923C150.989 29.0056 151.096 29.2616 151.096 29.5603V33.9123C151.096 34.211 150.989 34.467 150.776 34.6803C150.563 34.8936 150.307 35.0003 150.008 35.0003H135.032C134.733 35.0003 134.477 34.8936 134.264 34.6803C134.051 34.467 133.944 34.211 133.944 33.9123V2.36029C133.944 2.06162 134.051 1.80562 134.264 1.59229C134.477 1.37896 134.733 1.27229 135.032 1.27229H140.472Z" fill="#0D0C22"/>
<path d="M158.417 34.7982C158.213 34.8226 157.961 34.8471 157.661 34.8716C157.361 34.896 157.109 34.9083 156.905 34.9083C156.341 34.9083 155.82 34.8043 155.34 34.5963C154.872 34.3761 154.464 34.0703 154.116 33.6789C153.768 33.2875 153.492 32.8165 153.288 32.2661C153.096 31.7034 153 31.0795 153 30.3945C153 29.4648 153.12 28.6697 153.36 28.0092C153.612 27.3364 153.93 26.7859 154.314 26.3578C154.71 25.9174 155.148 25.5994 155.628 25.4037C156.119 25.1957 156.599 25.0917 157.067 25.0917C157.235 25.0917 157.451 25.104 157.715 25.1284C157.991 25.1529 158.225 25.1774 158.417 25.2018C158.501 25.2141 158.573 25.2569 158.633 25.3303C158.693 25.3914 158.723 25.4648 158.723 25.5505V26.7982C158.723 26.896 158.693 26.9694 158.633 27.0183C158.573 27.0673 158.501 27.0856 158.417 27.0734C158.237 27.0489 158.015 27.0245 157.751 27C157.499 26.9755 157.271 26.9633 157.067 26.9633C156.851 26.9633 156.629 27.0428 156.401 27.2018C156.173 27.3609 155.964 27.5933 155.772 27.8991C155.592 28.1927 155.442 28.5535 155.322 28.9817C155.202 29.3976 155.142 29.8685 155.142 30.3945C155.142 30.5413 155.16 30.7615 155.196 31.055C155.244 31.3486 155.328 31.6422 155.448 31.9358C155.58 32.2294 155.76 32.4862 155.988 32.7064C156.227 32.9266 156.533 33.0367 156.905 33.0367C157.109 33.0367 157.361 33.0245 157.661 33C157.961 32.9755 158.213 32.9511 158.417 32.9266C158.501 32.9144 158.573 32.9327 158.633 32.9817C158.693 33.0306 158.723 33.104 158.723 33.2018V34.4495C158.723 34.5352 158.693 34.6147 158.633 34.6881C158.573 34.7492 158.501 34.7859 158.417 34.7982Z" fill="#0D0C22"/>
<path d="M163.419 35C162.291 35 161.409 34.5596 160.773 33.6789C160.137 32.7982 159.819 31.5688 159.819 29.9908C159.819 28.4251 160.137 27.2018 160.773 26.3211C161.409 25.4404 162.291 25 163.419 25C164.546 25 165.422 25.4404 166.046 26.3211C166.682 27.2018 167 28.4251 167 29.9908C167 31.5688 166.682 32.7982 166.046 33.6789C165.422 34.5596 164.546 35 163.419 35ZM163.419 26.9633C163.119 26.9633 162.873 27.055 162.681 27.2385C162.489 27.422 162.339 27.6606 162.231 27.9541C162.123 28.2477 162.051 28.578 162.015 28.945C161.979 29.2997 161.961 29.6483 161.961 29.9908C161.961 30.3333 161.979 30.6881 162.015 31.055C162.051 31.4098 162.123 31.7339 162.231 32.0275C162.339 32.3211 162.489 32.5658 162.681 32.7615C162.873 32.945 163.119 33.0367 163.419 33.0367C163.719 33.0367 163.958 32.945 164.138 32.7615C164.33 32.5658 164.48 32.3211 164.588 32.0275C164.696 31.7339 164.768 31.4098 164.804 31.055C164.84 30.6881 164.858 30.3333 164.858 29.9908C164.858 29.6483 164.84 29.2997 164.804 28.945C164.768 28.578 164.696 28.2477 164.588 27.9541C164.48 27.6606 164.33 27.422 164.138 27.2385C163.958 27.055 163.719 26.9633 163.419 26.9633Z" fill="#0D0C22"/>
<path fill-rule="evenodd" clip-rule="evenodd" d="M25.5141 0.929864C26.9606 0.315972 28.5111 0 30.0769 0C31.6427 0 33.1931 0.315972 34.6397 0.929864C36.0859 1.54364 37.4 2.44321 38.5068 3.57719C39.614 4.7108 40.4929 6.0573 41.0921 7.53861C41.6915 9.02018 42 10.6082 42 12.2119C42 13.8156 41.6915 15.4037 41.0921 16.8852C40.4928 18.3667 39.6144 19.7127 38.5071 20.8463L22.2962 37.4499C21.5801 38.1834 20.419 38.1834 19.7028 37.4499L3.49191 20.8463C1.25608 18.5563 0 15.4505 0 12.2119C0 8.97338 1.25608 5.86749 3.49191 3.5775C5.72775 1.28751 8.76019 0.00100443 11.9221 0.00100443C15.0841 0.00100443 18.1165 1.28751 20.3524 3.5775L20.9995 4.24031L21.6463 3.57781C22.7532 2.44369 24.0677 1.5437 25.5141 0.929864ZM30.0769 3.75646C28.9929 3.75646 27.9195 3.97521 26.918 4.40021C25.9166 4.82521 25.0067 5.44814 24.2404 6.2334L22.2962 8.22464C21.5801 8.95813 20.419 8.95813 19.7028 8.22464L17.759 6.23372C16.2109 4.6482 14.1114 3.75746 11.9221 3.75746C9.73291 3.75746 7.63334 4.6482 6.08532 6.23372C4.53729 7.81923 3.66762 9.96966 3.66762 12.2119C3.66762 14.4542 4.53729 16.6046 6.08532 18.1901L20.9995 33.4656L35.9137 18.1901C36.6804 17.4052 37.2889 16.473 37.7038 15.4473C38.1188 14.4216 38.3324 13.3222 38.3324 12.2119C38.3324 11.1016 38.1188 10.0023 37.7038 8.97655C37.2889 7.95084 36.6807 7.01892 35.914 6.23403C35.1477 5.44876 34.2372 4.82521 33.2357 4.40021C32.2343 3.97521 31.1609 3.75646 30.0769 3.75646Z" fill="#0D0C22"/>
<path d="M30.76 16.9022C29.9512 17.7942 28.5094 19.1616 26.3544 20.1932C25.7313 20.4915 23.59 21.4567 20.8065 21.5487C17.158 21.6693 13.4608 20.3516 10.587 17.5689L10.5923 17.563C10.3685 17.3426 10.1713 17.1325 9.99664 16.9381C9.99664 16.9381 11.1351 14.4702 11.8008 15.2115C12.034 15.471 12.5492 15.9515 13.1205 16.4663C15.3546 18.2561 18.0542 19.0987 20.7278 19.0104C23.0303 18.9342 24.8209 18.1279 25.3193 17.8892C27.1012 17.0363 28.2947 15.9047 28.9638 15.1667C29.6329 14.4288 30.76 16.9022 30.76 16.9022Z" fill="#0D0C22"/>
</svg>
